<svg width="68" height="179" viewBox="0 0 68 179" fill="none" xmlns="http://www.w3.org/2000/svg">
<path d="M65.1094 136.144C59.5777 124.572 43.6953 120.392 28.1513 125.767C12.1604 125.403 14.3089 118.225 23.0757 111.899C26.0359 112.74 29.1297 113.165 32.271 113.165C52.7292 113.795 64.3889 95.5904 65.0459 78.4935C66.7805 65.4229 66.6536 57.4642 54.2615 51.9663C59.1692 49.2874 60.6566 42.7792 57.4108 38.2306C57.1741 27.3523 40.2261 26.3514 38.8405 37.2944C36.9063 48.223 53.5291 52.2413 56.8846 41.806C58.1604 45.4145 57.0869 49.4487 54.2179 51.9478C50.6562 50.3055 45.73 48.5403 38.6012 46.2766C20.1116 42.1353 2.833 28.192 10.6162 9.66443C-5.58352 23.092 -3.20637 55.4253 17.4938 62.3884C-4.64747 72.4587 -2.18836 103.624 20.5915 111.098C0.480968 130.353 13.2512 134.424 13.2512 134.424C3.30101 143.255 -0.879485 155.571 3.82721 165.423C17.4462 195.655 80.0651 165.725 65.1094 136.146V136.144ZM36.4197 70.8932C37.6757 74.9393 38.3685 80.3328 38.3685 86.0807C38.6038 103.907 31.4182 115.611 27.4334 98.666C25.6499 92.4963 24.9597 63.9552 32.2617 67.8731C34.0968 68.7789 36.1619 68.6559 36.4184 70.8932H36.4197ZM32.7615 111.837C-3.98642 104.078 10.6876 57.2143 28.5638 66.4596C23.5041 77.2612 22.9898 96.7593 29.5541 107.06C41.2851 115.592 40.8276 75.3174 37.4933 69.9173C69.6442 79.587 64.3466 109.843 32.7615 111.837ZM51.4111 164.294C44.0271 180.141 5.94919 161.064 14.215 145.655C21.6016 129.812 59.6848 148.895 51.4111 164.294Z" fill="#1B1B1B"/>
<path d="M58.0047 25.796H59.1444V0H57.8329C57.1784 2.45677 55.9502 3.68516 54.1482 3.68516C43.4576 1.17947 32.7578 -1.55894 22.3516 2.08786C39.3261 -0.704761 57.4587 10.705 58.0047 25.796Z" fill="#1B1B1B"/>
</svg>
